<svg width="37" height="32" viewBox="0 0 37 32" fill="none" xmlns="http://www.w3.org/2000/svg">
<path d="M27.1719 0C23.5952 0 20.4595 1.83305 18.5 4.61692C16.5405 1.83305 13.4048 0 9.82812 0C4.82387 0 0 4.19637 0 10.2852C0 16.7992 4.72983 22.242 8.98483 25.8685C11.6575 28.1263 14.5589 30.1055 17.6428 31.7745L17.686 31.8004L17.6983 31.8049L17.6968 31.8095C17.9481 31.939 18.224 32.0015 18.5 32C18.776 32.0015 19.0519 31.9375 19.3032 31.8095L19.3017 31.8049L19.314 31.8004L19.3572 31.7745C22.4411 30.1055 25.3425 28.1263 28.0152 25.8685C32.2702 22.242 37 16.7992 37 10.2852C37 4.19637 32.1761 0 27.1719 0ZM25.7551 23.2751C23.5033 25.1795 21.0758 26.8711 18.5046 28.3278L18.4985 28.3247L18.4923 28.3278C15.922 26.8697 13.4947 25.1782 11.2418 23.2751C7.11479 19.7598 3.46104 15.2023 3.46104 10.2883C3.46104 6.0919 6.73092 3.43145 9.82042 3.43145C12.9962 3.43145 15.8545 5.68506 16.8257 9.04489C17.0462 9.79914 17.7446 10.2593 18.5 10.2578C19.2554 10.2593 19.9538 9.79762 20.1727 9.04489C21.144 5.68506 24.0022 3.43145 27.178 3.43145C30.2675 3.43145 33.5374 6.0919 33.5374 10.2883C33.5374 15.2023 29.8837 19.7598 25.7551 23.2751Z" fill="white"/>
</svg>
