<svg width="39" height="39" viewBox="0 0 39 39" fill="none" xmlns="http://www.w3.org/2000/svg">
<path d="M12.9922 16.4375V28.6875C12.9922 28.9921 12.8712 29.2842 12.6558 29.4996C12.4404 29.7149 12.1483 29.8359 11.8438 29.8359C11.5392 29.8359 11.2471 29.7149 11.0317 29.4996C10.8163 29.2842 10.6953 28.9921 10.6953 28.6875V16.4375C10.6953 16.1329 10.8163 15.8408 11.0317 15.6254C11.2471 15.4101 11.5392 15.2891 11.8438 15.2891C12.1483 15.2891 12.4404 15.4101 12.6558 15.6254C12.8712 15.8408 12.9922 16.1329 12.9922 16.4375ZM11.8438 8.39844C11.4652 8.39844 11.0951 8.51069 10.7804 8.72101C10.4656 8.93133 10.2203 9.23027 10.0754 9.58002C9.93052 9.92977 9.89261 10.3146 9.96647 10.6859C10.0403 11.0572 10.2226 11.3983 10.4903 11.6659C10.758 11.9336 11.099 12.1159 11.4703 12.1898C11.8416 12.2636 12.2265 12.2257 12.5762 12.0809C12.926 11.936 13.2249 11.6907 13.4352 11.3759C13.6456 11.0611 13.7578 10.6911 13.7578 10.3125C13.7578 9.80486 13.5562 9.31801 13.1972 8.95905C12.8382 8.6001 12.3514 8.39844 11.8438 8.39844ZM38.2578 3.42188V35.5781C38.2578 36.2888 37.9755 36.9704 37.4729 37.4729C36.9704 37.9755 36.2888 38.2578 35.5781 38.2578H3.42188C2.71118 38.2578 2.02959 37.9755 1.52705 37.4729C1.02451 36.9704 0.742188 36.2888 0.742188 35.5781V3.42188C0.742188 2.71118 1.02451 2.02959 1.52705 1.52705C2.02959 1.02451 2.71118 0.742188 3.42188 0.742188H35.5781C36.2888 0.742188 36.9704 1.02451 37.4729 1.52705C37.9755 2.02959 38.2578 2.71118 38.2578 3.42188ZM35.9609 3.42188C35.9609 3.32035 35.9206 3.22298 35.8488 3.15119C35.777 3.07939 35.6797 3.03906 35.5781 3.03906H3.42188C3.32035 3.03906 3.22298 3.07939 3.15119 3.15119C3.07939 3.22298 3.03906 3.32035 3.03906 3.42188V35.5781C3.03906 35.6797 3.07939 35.777 3.15119 35.8488C3.22298 35.9206 3.32035 35.9609 3.42188 35.9609H35.5781C35.6797 35.9609 35.777 35.9206 35.8488 35.8488C35.9206 35.777 35.9609 35.6797 35.9609 35.5781V3.42188ZM23.3281 15.2891C21.7851 15.2903 20.2926 15.8398 19.1172 16.8395V16.4375C19.1172 16.1329 18.9962 15.8408 18.7808 15.6254C18.5654 15.4101 18.2733 15.2891 17.9688 15.2891C17.6642 15.2891 17.3721 15.4101 17.1567 15.6254C16.9413 15.8408 16.8203 16.1329 16.8203 16.4375V28.6875C16.8203 28.9921 16.9413 29.2842 17.1567 29.4996C17.3721 29.7149 17.6642 29.8359 17.9688 29.8359C18.2733 29.8359 18.5654 29.7149 18.7808 29.4996C18.9962 29.2842 19.1172 28.9921 19.1172 28.6875V21.7969C19.1172 20.6801 19.5608 19.609 20.3505 18.8193C21.1402 18.0296 22.2113 17.5859 23.3281 17.5859C24.4449 17.5859 25.516 18.0296 26.3057 18.8193C27.0954 19.609 27.5391 20.6801 27.5391 21.7969V28.6875C27.5391 28.9921 27.6601 29.2842 27.8754 29.4996C28.0908 29.7149 28.3829 29.8359 28.6875 29.8359C28.9921 29.8359 29.2842 29.7149 29.4996 29.4996C29.7149 29.2842 29.8359 28.9921 29.8359 28.6875V21.7969C29.8309 20.0724 29.1436 18.4201 27.9243 17.2007C26.7049 15.9814 25.0526 15.2941 23.3281 15.2891Z" fill="white"/>
</svg>
