<svg width="29" height="32" viewBox="0 0 29 32" fill="none" xmlns="http://www.w3.org/2000/svg">
<path d="M3.625 28.3429H9.0625V17.3714H19.9375V28.3429H25.375V11.8857L14.5 3.65714L3.625 11.8857V28.3429ZM3.625 32C2.62812 32 1.77504 31.6422 1.06575 30.9266C0.35525 30.2098 0 29.3486 0 28.3429V11.8857C0 11.3067 0.128687 10.7581 0.386062 10.24C0.642229 9.72191 0.996875 9.29524 1.45 8.96L12.325 0.731429C12.6573 0.487619 13.0047 0.304762 13.3672 0.182857C13.7297 0.0609522 14.1073 0 14.5 0C14.8927 0 15.2703 0.0609522 15.6328 0.182857C15.9953 0.304762 16.3427 0.487619 16.675 0.731429L27.55 8.96C28.0031 9.29524 28.3584 9.72191 28.6157 10.24C28.8719 10.7581 29 11.3067 29 11.8857V28.3429C29 29.3486 28.6454 30.2098 27.9361 30.9266C27.2256 31.6422 26.3719 32 25.375 32H16.3125V21.0286H12.6875V32H3.625Z" fill="white"/>
</svg>
