<svg width="39" height="39" viewBox="0 0 39 39" fill="none" xmlns="http://www.w3.org/2000/svg">
<path d="M19.5 10.6953C17.7586 10.6953 16.0563 11.2117 14.6084 12.1792C13.1605 13.1466 12.0319 14.5217 11.3655 16.1306C10.6991 17.7394 10.5248 19.5098 10.8645 21.2177C11.2042 22.9257 12.0428 24.4945 13.2741 25.7259C14.5055 26.9572 16.0743 27.7958 17.7823 28.1355C19.4902 28.4752 21.2606 28.3009 22.8694 27.6345C24.4783 26.9681 25.8534 25.8395 26.8208 24.3916C27.7883 22.9437 28.3047 21.2414 28.3047 19.5C28.3047 17.1649 27.3771 14.9253 25.7259 13.2741C24.0747 11.6229 21.8351 10.6953 19.5 10.6953ZM19.5 26.0078C18.2129 26.0078 16.9547 25.6261 15.8845 24.911C14.8142 24.196 13.9801 23.1796 13.4876 21.9904C12.995 20.8013 12.8661 19.4928 13.1172 18.2304C13.3683 16.968 13.9881 15.8084 14.8983 14.8983C15.8084 13.9881 16.968 13.3683 18.2304 13.1172C19.4928 12.8661 20.8013 12.995 21.9904 13.4876C23.1796 13.9801 24.196 14.8142 24.911 15.8845C25.6261 16.9547 26.0078 18.2129 26.0078 19.5C26.0028 21.2244 25.3155 22.8768 24.0961 24.0961C22.8768 25.3155 21.2244 26.0028 19.5 26.0078ZM27.9219 0.742188H11.0781C8.33686 0.742187 5.70788 1.83115 3.76951 3.76951C1.83115 5.70788 0.742188 8.33686 0.742188 11.0781V27.9219C0.742187 30.6631 1.83115 33.2921 3.76951 35.2305C5.70788 37.1688 8.33686 38.2578 11.0781 38.2578H27.9219C30.6631 38.2578 33.2921 37.1688 35.2305 35.2305C37.1688 33.2921 38.2578 30.6631 38.2578 27.9219V11.0781C38.2578 8.33686 37.1688 5.70788 35.2305 3.76951C33.2921 1.83115 30.6631 0.742188 27.9219 0.742188ZM35.9609 27.9219C35.9609 30.054 35.114 32.0987 33.6063 33.6063C32.0987 35.114 30.054 35.9609 27.9219 35.9609H11.0781C8.94603 35.9609 6.90127 35.114 5.39365 33.6063C3.88603 32.0987 3.03906 30.054 3.03906 27.9219V11.0781C3.03906 8.94603 3.88603 6.90127 5.39365 5.39365C6.90127 3.88603 8.94603 3.03906 11.0781 3.03906H27.9219C30.054 3.03906 32.0987 3.88603 33.6063 5.39365C35.114 6.90127 35.9609 8.94603 35.9609 11.0781V27.9219ZM31.3672 9.54688C31.3672 9.92544 31.2549 10.2955 31.0446 10.6103C30.8343 10.925 30.5354 11.1704 30.1856 11.3152C29.8359 11.4601 29.451 11.498 29.0797 11.4242C28.7084 11.3503 28.3674 11.168 28.0997 10.9003C27.832 10.6326 27.6497 10.2916 27.5758 9.92029C27.502 9.549 27.5399 9.16414 27.6848 8.81439C27.8296 8.46465 28.075 8.16571 28.3897 7.95539C28.7045 7.74507 29.0746 7.63281 29.4531 7.63281C29.9608 7.63281 30.4476 7.83447 30.8066 8.19343C31.1655 8.55238 31.3672 9.03923 31.3672 9.54688Z" fill="white"/>
</svg>
