<svg width="34" height="34" viewBox="0 0 34 34" fill="none" xmlns="http://www.w3.org/2000/svg">
<path d="M32.7978 11.6467C34.8315 9.61307 33.9042 7.23783 32.7978 6.08275L27.9169 1.20211C25.867 -0.831492 23.5079 0.0958291 22.3527 1.20211L19.5869 3.98407H15.373C12.2818 3.98407 10.4921 5.61095 9.58104 7.48186L2.35732 14.7052V21.2127L1.20217 22.3515C-0.831536 24.4014 0.0958342 26.7604 1.20217 27.9155L6.08307 32.7961C6.96163 33.6746 7.90527 34 8.8001 34C9.95524 34 11.0128 33.4306 11.6473 32.7961L16.0401 28.3873H21.8809C24.6467 28.3873 26.0459 26.6628 26.5503 24.9708C28.3888 24.4828 29.3975 23.0836 29.8042 21.7171C32.326 21.0663 33.2697 18.6748 33.2697 16.9991V12.1185H32.3097L32.7978 11.6467ZM30.0157 16.9991C30.0157 17.7312 29.7066 18.626 28.3888 18.626H26.7618V20.2529C26.7618 20.985 26.4527 21.8797 25.1348 21.8797H23.5079V23.5066C23.5079 24.2387 23.1987 25.1335 21.8809 25.1335H14.706L9.36953 30.4697C8.86518 30.9415 8.57232 30.6649 8.39336 30.4859L3.52873 25.6378C3.05691 25.1335 3.33349 24.8407 3.51246 24.6617L5.61125 22.5468V16.0392L8.86518 12.7855V15.3722C8.86518 17.3408 10.1667 20.2529 13.7461 20.2529C17.3254 20.2529 18.627 17.3408 18.627 15.3722H30.0157V16.9991ZM30.4875 9.3365L27.7217 12.1185H15.373V15.3722C15.373 16.1043 15.0639 16.9991 13.7461 16.9991C12.4282 16.9991 12.1191 16.1043 12.1191 15.3722V10.4916C12.1191 9.74322 12.3957 7.23783 15.373 7.23783H20.921L24.6305 3.52854C25.1348 3.05675 25.4277 3.33332 25.6066 3.51228L30.4713 8.36038C30.9431 8.86471 30.6665 9.15755 30.4875 9.3365Z" fill="white"/>
</svg>
