<svg width="35" height="30" viewBox="0 0 35 30" fill="none" xmlns="http://www.w3.org/2000/svg">
<path d="M13.5276 0.5V3.00125C12.0424 2.40313 10.4499 2.095 8.85736 2.095C5.6544 2.095 2.45143 3.3275 0 5.81062L5.95859 11.8463H7.94479V13.8581C9.48364 15.4169 11.4877 16.2325 13.5097 16.3231V20.4375H8.15951V25.875C8.15951 27.8687 9.76994 29.5 11.7382 29.5H29.6319C32.6022 29.5 35 27.0712 35 24.0625V0.5H13.5276ZM11.5414 12.1181V8.22125H7.46166L5.60072 6.33625C6.63972 5.9301 7.74367 5.7212 8.85736 5.72C11.2551 5.72 13.4918 6.6625 15.1917 8.36625L17.7147 10.9219L17.3569 11.2844C16.9073 11.7441 16.3722 12.109 15.7824 12.3579C15.1927 12.6068 14.5601 12.7348 13.9213 12.7344C13.0803 12.7344 12.2572 12.5169 11.5414 12.1181ZM31.4213 24.0625C31.4213 25.0594 30.6161 25.875 29.6319 25.875C28.6478 25.875 27.8425 25.0594 27.8425 24.0625V20.4375H17.1063V15.7431C18.1263 15.3263 19.0746 14.71 19.8978 13.8763L20.2556 13.5138L25.3195 18.625H27.8425V16.0694L17.1063 5.24875V4.125H31.4213V24.0625Z" fill="white"/>
</svg>
